HIERARCHY
ROOT Hips
{
	OFFSET	0.000000	0.000000	0.000000
	CHANNELS 6 Xposition Yposition Zposition Zrotation Xrotation Yrotation
	JOINT LeftUpLeg
	{
		OFFSET	12.811937	-7.635976	0.557276
		CHANNELS 3 Zrotation Xrotation Yrotation
		JOINT LeftLeg
		{
			OFFSET	-0.429270	-42.206159	-1.204951
			CHANNELS 3 Zrotation Xrotation Yrotation
			JOINT LeftFoot
			{
				OFFSET	-2.112259	-42.464481	-3.973220
				CHANNELS 3 Zrotation Xrotation Yrotation
				JOINT LeftFootHeel
				{
					OFFSET	0.387196	-5.329707	-3.419729
					CHANNELS 3 Zrotation Xrotation Yrotation
					End Site
					{
						OFFSET	0.327567	-0.000003	16.505428
					}
				}
			}
		}
	}
	JOINT RightUpLeg
	{
		OFFSET	-12.811937	-7.635976	0.557276
		CHANNELS 3 Zrotation Xrotation Yrotation
		JOINT RightLeg
		{
			OFFSET	0.429270	-42.206159	-1.204951
			CHANNELS 3 Zrotation Xrotation Yrotation
			JOINT RightFoot
			{
				OFFSET	2.112259	-42.464481	-3.973220
				CHANNELS 3 Zrotation Xrotation Yrotation
				JOINT RightFootHeel
				{
					OFFSET	-0.387198	-5.329707	-3.419729
					CHANNELS 3 Zrotation Xrotation Yrotation
					End Site
					{
						OFFSET	-0.327566	-0.000003	16.505428
					}
				}
			}
		}
	}
	JOINT Spine
	{
		OFFSET	0.000000	13.731315	-1.007646
		CHANNELS 3 Zrotation Xrotation Yrotation
		JOINT Spine1
		{
			OFFSET	0.000000	12.091746	-0.604589
			CHANNELS 3 Zrotation Xrotation Yrotation
			JOINT LeftShoulder
			{
				OFFSET	5.746115	20.990027	-0.833816
				CHANNELS 3 Zrotation Xrotation Yrotation
				JOINT LeftArm
				{
					OFFSET	10.881538	-1.359258	0.219250
					CHANNELS 3 Zrotation Xrotation Yrotation
					JOINT LeftForeArm
					{
						OFFSET	4.390314	-31.537147	0.202818
						CHANNELS 3 Zrotation Xrotation Yrotation
						JOINT LeftHand
						{
							OFFSET	3.168650	-24.865023	5.373370
							CHANNELS 3 Zrotation Xrotation Yrotation
							End Site
							{
								OFFSET	1.457528	-10.806075	2.170267
							}
						}
					}
				}
			}
			JOINT RightShoulder
			{
				OFFSET	-5.746115	20.990027	-0.833816
				CHANNELS 3 Zrotation Xrotation Yrotation
				JOINT RightArm
				{
					OFFSET	-10.881538	-1.359258	0.219250
					CHANNELS 3 Zrotation Xrotation Yrotation
					JOINT RightForeArm
					{
						OFFSET	-4.390314	-31.537147	0.202818
						CHANNELS 3 Zrotation Xrotation Yrotation
						JOINT RightHand
						{
							OFFSET	-3.168650	-24.865023	5.373370
							CHANNELS 3 Zrotation Xrotation Yrotation
							End Site
							{
								OFFSET	-1.457528	-10.806075	2.170267
							}
						}
					}
				}
			}
			JOINT Neck
			{
				OFFSET	0.000000	27.075639	0.680489
				CHANNELS 3 Zrotation Xrotation Yrotation
				JOINT Head
				{
					OFFSET	0.000000	12.391287	1.239129
					CHANNELS 3 Zrotation Xrotation Yrotation
					End Site
					{
						OFFSET	0.000000	13.818691	-0.105853
					}
				}
			}
		}
	}
}
MOTION
Frames:    19
Frame Time: 0.016667
-0.524336	100.351480	-0.634613	-0.615118	14.501735	0.512733	2.908041	-14.583002	-0.547065	-2.083292	0.508866	4.234010	-1.027967	0.417082	2.740989	0.	0.	0.	0.027401	-13.343244	0.023806	2.537092	-2.429011	1.563879	-1.651214	3.231120	-2.059284	0.	0.	0.	0.873318	-12.732232	2.344042	-1.980073	-26.516180	1.010961	3.270056	10.614061	9.356255	46.806435	14.507392	61.619106	-28.056181	-106.689644	-38.349888	62.640812	-47.887428	2.593271	-11.276124	4.196211	-8.856701	-43.350864	17.780663	-50.918854	15.902402	-112.385956	28.281441	-67.807205	-41.742229	-16.056572	-10.299942	29.638094	-20.023890	-1.239198	13.918908	-0.107181	
-0.501058	100.340705	-0.557697	-0.605510	14.264241	0.624476	2.860144	-14.340749	-0.678681	-2.114176	0.593018	4.102696	-0.996582	0.317428	2.869992	0.	0.	0.	0.119865	-13.105573	0.241552	2.442513	-2.205010	1.545333	-1.682415	3.003465	-2.352637	0.	0.	0.	0.680004	-12.724056	2.352295	-1.892487	-26.289524	0.836568	3.776911	10.104731	8.796624	49.076435	13.745238	61.766079	-30.364092	-103.644699	-40.844322	69.592484	-49.034245	8.591496	-11.638803	3.786608	-8.119422	-45.577007	16.483738	-51.093204	14.107435	-113.615288	26.653337	-68.623619	-41.706779	-15.928083	-9.960500	29.617466	-20.250797	-1.022012	13.951262	-0.118109	
-0.490788	100.334930	-0.525107	-0.598421	14.124037	0.692173	2.831318	-14.205229	-0.785684	-2.129575	0.639183	4.064696	-0.981124	0.269073	2.934638	0.	0.	0.	0.179271	-12.992953	0.339719	2.380033	-2.068715	1.531809	-1.700008	2.893401	-2.494502	0.	0.	0.	0.559084	-12.747269	2.350869	-1.788189	-25.860268	0.029128	3.856375	9.522445	9.294305	50.880039	13.301908	61.635197	-27.794174	-107.355446	-38.191784	65.308830	-48.552921	4.521266	-11.887274	3.042737	-6.928512	-47.284084	15.726625	-51.145966	13.211739	-114.428162	25.856998	-69.076553	-41.829056	-15.634699	-10.155170	29.210087	-19.653702	-0.822386	13.910662	-0.087856	
-0.484628	100.331277	-0.510680	-0.591532	13.994271	0.754751	2.804567	-14.079864	-0.884896	-2.135686	0.662975	4.065992	-0.973311	0.244511	2.958555	0.	0.	0.	0.196307	-12.874564	0.352796	2.351667	-2.006833	1.520991	-1.708423	2.842137	-2.556586	0.	0.	0.	0.446532	-12.790096	2.369388	-1.759605	-24.825205	-0.133098	3.970030	8.486026	9.284739	51.829189	13.088929	61.591278	-27.711834	-107.734497	-38.183174	65.217857	-48.740742	4.333202	-11.978179	1.842747	-6.542820	-49.123425	14.997100	-51.292477	12.312993	-115.232231	25.048288	-69.487358	-42.051609	-15.246449	-9.819374	28.322598	-19.978247	-0.645027	13.864450	-0.093397	
-0.466303	100.326413	-0.470280	-0.591532	13.994271	0.754751	2.797895	-14.082080	-0.928805	-2.151085	0.719175	4.097476	-0.956030	0.187489	2.968716	0.	0.	0.	0.225600	-12.874486	0.430610	2.330433	-1.960564	1.508080	-1.716572	2.795105	-2.616120	0.	0.	0.	0.446532	-12.790096	2.369388	-1.796101	-24.264977	-0.241917	4.087441	7.752037	9.314831	52.798111	12.886796	61.557068	-27.576181	-108.098724	-38.132057	65.132378	-48.933449	4.135342	-11.942480	1.275382	-6.567280	-49.123425	14.997100	-51.292477	12.312993	-115.232231	25.048288	-69.487358	-42.051609	-15.246449	-9.782714	27.754711	-19.981710	-0.645027	13.864450	-0.093397	
-0.514385	100.330328	-0.379765	-0.576226	13.819778	0.850545	2.756007	-13.913389	-1.056666	-2.148782	0.719582	4.113617	-0.956030	0.187489	2.968716	0.	0.	0.	0.266353	-12.666672	0.583463	2.266195	-1.868338	1.484460	-1.727705	2.667410	-2.833542	0.	0.	0.	0.278985	-12.862902	2.410394	-1.751468	-23.761669	-0.465409	4.447135	7.019463	9.084596	55.672916	12.202049	61.584763	-26.723324	-109.062729	-37.560608	65.205406	-49.375645	3.703500	-11.997124	0.430753	-5.756607	-52.044449	13.960350	-51.662907	11.187547	-116.444138	24.182716	-70.194008	-42.265198	-14.658443	-9.434272	27.393534	-20.233946	-0.311163	13.875772	-0.191440	
-0.540187	100.333303	-0.321972	-0.560273	13.725612	0.918100	2.722129	-13.822927	-1.141992	-2.148533	0.719720	4.085533	-0.955392	0.186885	3.003814	0.	0.	0.	0.287637	-12.550659	0.680413	2.217900	-1.814512	1.524862	-1.727786	2.592200	-3.034723	0.	0.	0.	0.166060	-12.926251	2.452536	-1.713955	-23.062305	-0.924546	4.729641	6.271308	9.267315	57.435928	11.703087	61.702549	-25.916813	-109.667427	-36.991135	65.543236	-49.433567	3.740319	-12.030560	-0.539244	-5.029599	-54.013462	13.181135	-51.943817	10.613575	-117.246117	23.858459	-70.721870	-42.198738	-14.415948	-9.305553	26.740793	-20.098408	-0.001055	13.904428	-0.300582	
-0.586645	100.338990	-0.246544	-0.528417	13.628626	1.019309	2.650608	-13.726336	-1.277064	-2.136649	0.714862	4.037365	-0.953518	0.185982	3.066931	0.	0.	0.	0.305143	-12.421800	0.806323	2.160998	-1.751424	1.546183	-1.739350	2.497539	-3.279854	0.	0.	0.	0.018732	-13.019283	2.521033	-1.668772	-22.324976	-1.579844	5.251557	5.639374	9.403513	59.902653	11.000347	62.138119	-24.585636	-110.551094	-35.999809	66.198555	-49.312862	4.065743	-12.143519	-1.563774	-3.908398	-56.930553	11.971573	-52.447357	9.992895	-118.365967	23.517862	-71.531219	-41.744205	-14.500566	-9.082905	26.047384	-19.924772	0.470676	13.951408	-0.328736	
-0.586645	100.338990	-0.246544	-0.528417	13.628626	1.019309	2.650608	-13.726336	-1.277064	-2.139342	0.720594	4.027587	-0.951266	0.179913	3.076643	0.	0.	0.	0.305143	-12.421800	0.806323	2.160998	-1.751424	1.546183	-1.739350	2.497539	-3.279854	0.	0.	0.	-0.028402	-13.082439	2.575670	-1.646197	-22.017136	-1.688389	5.252752	5.399229	9.465944	59.902653	11.000347	62.138119	-24.585636	-110.551094	-35.999809	66.198555	-49.312862	4.065743	-12.136687	-1.811516	-3.920885	-57.975239	11.340630	-52.467789	10.082674	-118.727592	23.631695	-71.829842	-41.546600	-14.591716	-8.929424	25.777264	-19.984053	0.339891	13.927062	-0.332336	
-0.642217	100.344523	-0.180753	-0.491596	13.587400	1.112308	2.572681	-13.685205	-1.416976	-2.125957	0.721547	4.031336	-0.948231	0.173703	3.101914	0.	0.	0.	0.311442	-12.353170	0.910960	2.114869	-1.696044	1.437326	-1.760229	2.411773	-3.367324	0.	0.	0.	-0.175579	-13.153242	2.563254	-1.678931	-21.342642	-1.704653	5.790750	4.675168	8.905665	62.493507	10.573278	62.692940	-23.244976	-111.475235	-34.856583	66.874702	-49.208015	4.297431	-12.050673	-2.712885	-3.415748	-60.099915	10.967519	-52.408859	10.715505	-119.432755	24.317297	-72.502617	-41.124622	-14.724662	-8.439827	25.253773	-20.308811	0.989729	13.912045	-0.436342	
-0.669473	100.348166	-0.141300	-0.466401	13.591521	1.165317	2.530560	-13.692592	-1.498250	-2.123078	0.722014	4.051447	-0.948231	0.173703	3.101914	0.	0.	0.	0.303241	-12.345737	0.943314	2.093364	-1.656013	1.373764	-1.770335	2.358621	-3.391123	0.	0.	0.	-0.304202	-13.249552	2.594042	-1.661708	-21.115406	-1.807376	6.015967	4.332939	8.643805	64.372643	10.304382	62.930927	-22.538143	-112.090660	-34.288399	67.257584	-49.152481	4.416141	-11.967475	-3.050570	-3.010015	-62.240829	10.238194	-52.372894	11.400110	-120.055969	25.082161	-73.178604	-40.774109	-14.786797	-8.097630	25.151917	-20.454998	1.404483	13.863125	-0.517066	
-0.687811	100.349571	-0.104775	-0.450398	13.594078	1.198206	2.501668	-13.697949	-1.563941	-2.119197	0.722640	4.078557	-0.948231	0.173703	3.101914	0.	0.	0.	0.302616	-12.339016	0.978252	2.079606	-1.622922	1.389654	-1.778742	2.317161	-3.475287	0.	0.	0.	-0.422959	-13.347970	2.625879	-1.624993	-20.762016	-1.945782	6.166953	3.778207	8.511533	66.381165	10.013579	63.091358	-21.857037	-112.629379	-33.764042	67.700722	-49.091228	4.578418	-11.887932	-3.435724	-2.610558	-64.322594	9.437907	-52.335838	12.321664	-120.623451	26.145065	-73.950043	-40.454716	-14.903328	-7.704417	24.905630	-20.659037	1.744241	13.811877	-0.594505	
-0.703767	100.351606	-0.082630	-0.437128	13.596281	1.226199	2.481170	-13.701230	-1.595848	-2.119197	0.722640	4.078557	-0.948231	0.173703	3.101914	0.	0.	0.	0.304804	-12.332566	1.015133	2.064655	-1.609171	1.409965	-1.784342	2.295761	-3.559856	0.	0.	0.	-0.536873	-13.463943	2.651500	-1.553505	-20.422274	-1.950681	6.261982	3.177128	8.317358	68.453156	9.664965	63.192978	-21.114710	-113.088669	-33.206589	68.202728	-48.991341	4.803820	-11.875953	-3.747151	-2.303157	-66.335228	8.642832	-52.274376	13.394579	-121.096527	27.404182	-74.874474	-40.096848	-15.062124	-7.651930	24.690126	-20.774563	2.418572	13.894754	-0.762481	
-0.713583	100.357313	-0.085932	-0.417491	13.621724	1.260143	2.451779	-13.728098	-1.638348	-2.110147	0.743082	4.065338	-0.958209	0.153722	3.118501	0.	0.	0.	0.286836	-12.354497	1.006305	2.057270	-1.617712	1.415665	-1.786189	2.301298	-3.593576	0.	0.	0.	-0.709019	-13.654097	2.668969	-1.553638	-19.831568	-1.942547	6.432733	2.395693	8.049589	70.609566	9.279842	63.311871	-20.379631	-113.386665	-32.661053	68.812218	-48.791473	5.121079	-11.793124	-4.181339	-2.116075	-68.391830	7.850434	-51.724911	15.565501	-121.520294	29.820999	-75.772369	-39.611702	-15.199381	-6.468295	24.403851	-21.475838	2.333744	13.539259	-0.834132	
-0.717714	100.361586	-0.080917	-0.398146	13.693042	1.278754	2.435049	-13.795557	-1.609475	-2.108415	0.748757	4.081379	-0.967934	0.146978	3.054516	0.	0.	0.	0.265367	-12.423688	0.995584	2.054523	-1.623962	1.437799	-1.786174	2.306480	-3.627305	0.	0.	0.	-0.822298	-13.860175	2.599016	-1.619462	-19.327074	-1.922793	6.565077	1.583368	7.605050	74.078545	8.874310	63.224480	-20.289093	-113.577507	-32.821438	69.871567	-48.275051	5.849779	-11.712743	-4.430302	-1.618514	-71.335686	6.376286	-51.620403	18.107130	-121.742096	32.786037	-76.916008	-38.687080	-15.359065	-5.830335	24.035894	-21.726145	3.113217	13.510468	-1.107044	
-0.727408	100.361373	-0.077021	-0.398955	13.715658	1.287617	2.444428	-13.813581	-1.551528	-2.115383	0.746479	4.055505	-0.970612	0.147176	3.016943	0.	0.	0.	0.279652	-12.440158	1.036351	2.040220	-1.636423	1.430841	-1.787124	2.312648	-3.666023	0.	0.	0.	-0.879341	-14.023173	2.489834	-1.754104	-18.544113	-1.855054	6.824089	0.724697	7.231371	76.357346	8.710349	63.071449	-20.687763	-113.530693	-33.292133	70.548615	-47.903931	6.368325	-11.450702	-4.979778	-1.206207	-73.371590	5.539294	-51.559689	20.031914	-121.722374	34.902794	-77.576843	-38.043152	-15.594881	-5.136095	23.364546	-21.987759	3.493062	13.419905	-1.285442	
-0.732881	100.362206	-0.075329	-0.396518	13.736621	1.303603	2.441998	-13.833393	-1.541527	-2.118574	0.745624	4.040830	-0.971163	0.147292	3.006448	0.	0.	0.	0.280726	-12.458277	1.042917	2.032179	-1.639923	1.409145	-1.787124	2.312648	-3.666023	0.	0.	0.	-0.911277	-14.111167	2.415205	-1.818340	-17.928896	-1.769345	6.956703	0.092992	6.988404	77.489998	8.654317	62.998661	-20.984285	-113.444656	-33.603031	70.856926	-47.742172	6.615452	-11.331641	-5.452804	-1.065126	-74.335747	5.201726	-51.405418	21.230133	-121.757607	36.156975	-77.931786	-37.724079	-15.768817	-4.781882	22.790510	-22.166506	3.700881	13.377304	-1.377052	
-0.746618	100.365258	-0.062727	-0.380265	13.770673	1.326409	2.422902	-13.866940	-1.543768	-2.102748	0.751885	4.051609	-0.990574	0.142487	2.972450	0.	0.	0.	0.273727	-12.485918	1.064082	2.019860	-1.637763	1.385848	-1.790618	2.303784	-3.687676	0.	0.	0.	-1.000296	-14.329069	2.247069	-1.959017	-16.391870	-1.819031	7.270662	-1.305316	6.685388	79.733055	8.568993	63.058575	-21.430244	-113.075768	-34.034420	71.429024	-47.455330	7.060647	-11.032488	-6.668823	-0.607600	-76.298203	4.445542	-51.349937	23.436987	-121.555595	38.434879	-78.623436	-37.050640	-16.141916	-4.173512	21.347281	-22.209206	4.151732	13.286969	-1.615048	
-0.762645	100.367331	-0.051542	-0.366592	13.779819	1.351502	2.402919	-13.881434	-1.553457	-2.079081	0.765902	4.037991	-1.015062	0.135426	2.966795	0.	0.	0.	0.273547	-12.486461	1.097488	2.003290	-1.636974	1.349498	-1.794204	2.290353	-3.710343	0.	0.	0.	-1.094004	-14.492343	2.103747	-2.192050	-15.005566	-2.136030	7.709827	-2.462906	6.509023	80.775261	8.892195	63.123032	-21.362171	-113.697403	-34.112789	70.621391	-46.966492	6.223333	-10.603871	-7.904041	0.057912	-78.321907	3.705651	-51.073074	26.070244	-121.224236	41.060368	-79.227631	-36.418125	-16.463774	-3.574422	20.007038	-21.990511	4.568738	13.219405	-1.846512	
